<?xml version="1.0" standalone="no"?>
<svg version="1.0" xmlns="http://www.w3.org/2000/svg"
 width="80.000000pt" height="80.000000pt" viewBox="0 0 80.000000 80.000000"
 preserveAspectRatio="xMidYMid meet">

<g transform="translate(0.000000,80.000000) scale(0.100000,-0.100000)"
fill="#ffffff" stroke="none">
<path d="M343 721 c-17 -11 -34 -29 -38 -40 -6 -19 -14 -21 -76 -21 -47 0 -71
-4 -74 -12 -2 -7 -5 -136 -7 -286 l-3 -272 255 0 255 0 -3 272 c-2 150 -5 279
-7 286 -3 8 -27 12 -74 12 -62 0 -70 2 -76 21 -8 26 -62 59 -95 59 -14 0 -39
-9 -57 -19z m111 -22 c14 -11 26 -25 26 -30 0 -5 -36 -9 -80 -9 -44 0 -80 4
-80 9 0 18 53 51 80 51 15 0 39 -9 54 -21z m-166 -101 c-2 -33 0 -43 12 -43
12 0 14 10 12 43 l-4 42 92 0 92 0 -4 -42 c-2 -33 0 -43 12 -43 12 0 14 10 12
43 l-4 42 61 0 61 0 0 -249 c0 -137 3 -256 6 -265 6 -14 -19 -16 -236 -16
-217 0 -242 2 -236 16 3 9 6 128 6 265 l0 249 61 0 61 0 -4 -42z"/>
</g>
</svg>
