<?xml version="1.0" standalone="no"?>
<!DOCTYPE svg PUBLIC "-//W3C//DTD SVG 20010904//EN"
 "http://www.w3.org/TR/2001/REC-SVG-20010904/DTD/svg10.dtd">
<svg version="1.0" xmlns="http://www.w3.org/2000/svg"
 width="48.000000pt" height="48.000000pt" viewBox="0 0 48.000000 48.000000"
 preserveAspectRatio="xMidYMid meet">

<g transform="translate(0.000000,48.000000) scale(0.100000,-0.100000)"
fill="#fff" stroke="none">
<path d="M156 370 c-40 -39 -81 -70 -92 -70 -39 0 -42 -16 -22 -113 25 -122
25 -122 54 -135 33 -16 255 -16 289 0 27 12 35 34 56 149 14 76 9 99 -22 99
-14 0 -50 26 -95 70 -39 39 -77 70 -84 70 -7 0 -45 -32 -84 -70z m154 -15 l54
-55 -124 0 -124 0 54 55 c30 30 61 55 70 55 9 0 40 -25 70 -55z m120 -94 c0
-12 -29 -150 -36 -173 -5 -16 -21 -18 -154 -18 -132 0 -149 2 -155 18 -6 16
-35 159 -35 175 0 4 86 7 190 7 111 0 190 -4 190 -9z"/>
<path d="M119 226 c-3 -3 -2 -29 1 -58 6 -64 25 -62 21 2 -2 43 -12 66 -22 56z"/>
<path d="M195 218 c-9 -24 -1 -103 10 -103 14 0 19 95 6 108 -7 7 -12 5 -16
-5z"/>
<path d="M265 218 c-9 -24 -1 -103 10 -103 14 0 19 95 6 108 -7 7 -12 5 -16
-5z"/>
<path d="M347 223 c-10 -16 -11 -98 -1 -101 11 -3 23 97 13 104 -4 2 -10 1
-12 -3z"/>
</g>
</svg>
